<svg width="120" height="120" viewBox="0 0 120 120" fill="none" xmlns="http://www.w3.org/2000/svg">
<path d="M87.5835 25.9843C90.1211 22.7487 94.8607 22.1718 97.6473 25.2113C102.648 30.6655 106.348 37.241 108.415 44.4386C111.176 54.0521 110.886 64.2947 107.584 73.7336C104.282 83.1725 98.1344 91.3356 90.0007 97.0812C81.867 102.827 72.154 105.867 62.2205 105.778C52.2869 105.688 42.6295 102.473 34.5992 96.5816C26.5689 90.6903 20.5672 82.4176 17.4336 72.9207C14.3001 63.4237 14.1914 53.1776 17.1228 43.6154C19.3207 36.4461 23.145 29.9301 28.2524 24.5627C31.0814 21.5896 35.8034 22.264 38.2857 25.5481V25.5481C40.7452 28.8022 40.0447 33.3851 37.4446 36.5123C34.6521 39.8709 32.5329 43.7736 31.2353 48.0063C29.2126 54.6042 29.2876 61.6741 31.4498 68.2269C33.6119 74.7798 37.7531 80.488 43.294 84.553C48.8349 88.618 55.4985 90.8366 62.3527 90.8984C69.2068 90.9602 75.9088 88.8622 81.521 84.8977C87.1333 80.9333 91.3752 75.3007 93.6534 68.7879C95.9317 62.275 96.1322 55.2077 94.2271 48.5743C93.0098 44.3358 90.9717 40.4099 88.2556 37.0108C85.6996 33.8121 85.064 29.1968 87.5835 25.9843V25.9843Z" fill="url(#paint0_radial)"/>
<rect x="53.9131" y="14.0161" width="18.5289" height="53.3335" rx="6.08806" fill="url(#paint1_linear)"/>
<ellipse cx="6.61746" cy="33.3342" rx="6.61746" ry="6.66668" fill="url(#paint2_linear)"/>
<ellipse cx="112.496" cy="30.6665" rx="3.97048" ry="4.00001" fill="url(#paint3_linear)"/>
<ellipse cx="22.499" cy="110.667" rx="9.26445" ry="9.33336" fill="url(#paint4_linear)"/>
<defs>
<radialGradient id="paint0_radial" cx="0" cy="0" r="1" gradientUnits="userSpaceOnUse" gradientTransform="translate(62.6083 27.1571) rotate(82.7643) scale(75.9437 116.093)">
<stop stop-color="#451DB9"/>
<stop offset="1" stop-color="#FFE500"/>
</radialGradient>
<linearGradient id="paint1_linear" x1="58.6737" y1="14.0161" x2="38.8349" y2="48.4079" gradientUnits="userSpaceOnUse">
<stop stop-color="#451DB9"/>
<stop offset="1" stop-color="#FFE500"/>
</linearGradient>
<linearGradient id="paint2_linear" x1="6.61746" y1="26.6675" x2="6.61746" y2="40.0008" gradientUnits="userSpaceOnUse">
<stop stop-color="#451DB9"/>
<stop offset="1" stop-color="#FFE500"/>
</linearGradient>
<linearGradient id="paint3_linear" x1="112.496" y1="26.6665" x2="112.496" y2="34.6665" gradientUnits="userSpaceOnUse">
<stop stop-color="#451DB9"/>
<stop offset="1" stop-color="#FFE500"/>
</linearGradient>
<linearGradient id="paint4_linear" x1="22.499" y1="101.333" x2="22.499" y2="120" gradientUnits="userSpaceOnUse">
<stop stop-color="#451DB9"/>
<stop offset="1" stop-color="#FFE500"/>
</linearGradient>
</defs>
</svg>
